<svg width="73" height="64" viewBox="0 0 73 64" fill="none" xmlns="http://www.w3.org/2000/svg">
<path fill-rule="evenodd" clip-rule="evenodd" d="M51.9723 15.5916C51.9723 24.2026 44.9917 31.1832 36.3807 31.1832C27.7697 31.1832 20.7891 24.2026 20.7891 15.5916C20.7891 6.9806 27.7697 0 36.3807 0C44.9917 0 51.9723 6.9806 51.9723 15.5916ZM0.113326 30.0501C17.1 28.9051 31.9045 41.623 33.2834 58.6456C33.4263 60.4096 33.4194 62.1511 33.2735 63.8577C16.2868 65.0027 1.4824 52.2848 0.103464 35.2622C-0.0394272 33.4983 -0.0325948 31.7567 0.113326 30.0501ZM44.2642 63.2618C61.2867 61.8829 74.0046 47.0785 72.8597 30.0918C71.1531 29.9459 69.4115 29.9391 67.6476 30.082C50.625 31.4609 37.9071 46.2653 39.0521 63.2519C40.7587 63.3978 42.5002 63.4047 44.2642 63.2618Z" fill="#7F56D9"/>
</svg>
