<svg width="352" height="64" viewBox="0 0 352 64" fill="none" xmlns="http://www.w3.org/2000/svg">
<path fill-rule="evenodd" clip-rule="evenodd" d="M51.9723 15.5916C51.9723 24.2026 44.9917 31.1832 36.3807 31.1832C27.7697 31.1832 20.7891 24.2026 20.7891 15.5916C20.7891 6.9806 27.7697 0 36.3807 0C44.9917 0 51.9723 6.9806 51.9723 15.5916ZM0.113326 30.0501C17.1 28.9051 31.9045 41.623 33.2834 58.6456C33.4263 60.4096 33.4194 62.1511 33.2735 63.8577C16.2868 65.0027 1.4824 52.2848 0.103464 35.2622C-0.0394272 33.4983 -0.0325948 31.7567 0.113326 30.0501ZM44.2642 63.2618C61.2867 61.8829 74.0046 47.0785 72.8597 30.0918C71.1531 29.9459 69.4115 29.9391 67.6476 30.082C50.625 31.4609 37.9071 46.2653 39.0521 63.2519C40.7587 63.3978 42.5002 63.4047 44.2642 63.2618Z" fill="#7F56D9"/>
<path d="M82.9816 51.9648V15.0898H94.9066C97.3733 15.0898 99.615 15.5398 101.632 16.4398C103.665 17.3232 105.407 18.5815 106.857 20.2148C108.323 21.8315 109.448 23.7648 110.232 26.0148C111.015 28.2648 111.407 30.7482 111.407 33.4648C111.407 36.1815 111.015 38.6732 110.232 40.9398C109.448 43.2065 108.323 45.1648 106.857 46.8148C105.407 48.4482 103.665 49.7148 101.632 50.6148C99.615 51.5148 97.3733 51.9648 94.9066 51.9648H82.9816ZM90.7816 49.6648L87.2816 45.9648H93.9066C95.7066 45.9648 97.3316 45.4648 98.7816 44.4648C100.248 43.4482 101.407 42.0065 102.257 40.1398C103.107 38.2565 103.532 36.0315 103.532 33.4648C103.532 30.8815 103.107 28.6732 102.257 26.8398C101.407 24.9898 100.248 23.5732 98.7816 22.5898C97.3316 21.5898 95.7066 21.0898 93.9066 21.0898H87.2816L90.7816 17.3898V49.6648ZM125.502 52.5148C123.568 52.5148 121.843 52.2065 120.327 51.5898C118.827 50.9732 117.652 50.0815 116.802 48.9148C115.952 47.7482 115.527 46.3315 115.527 44.6648C115.527 42.7815 116.043 41.2482 117.077 40.0648C118.11 38.8815 119.477 37.9815 121.177 37.3648C122.893 36.7315 124.752 36.3148 126.752 36.1148C129.668 35.8315 131.677 35.5732 132.777 35.3398C133.893 35.1065 134.452 34.6982 134.452 34.1148C134.452 34.0982 134.452 34.0815 134.452 34.0648C134.452 33.0815 133.977 32.3065 133.027 31.7398C132.093 31.1732 130.785 30.8898 129.102 30.8898C127.318 30.8898 125.952 31.2148 125.002 31.8648C124.068 32.4982 123.602 33.4732 123.602 34.7898H115.977C115.977 32.6565 116.552 30.8565 117.702 29.3898C118.868 27.9232 120.443 26.8148 122.427 26.0648C124.41 25.2982 126.652 24.9148 129.152 24.9148C131.485 24.9148 133.643 25.2732 135.627 25.9898C137.61 26.6898 139.202 27.7482 140.402 29.1648C141.618 30.5815 142.227 32.3815 142.227 34.5648C142.227 34.9148 142.227 35.2648 142.227 35.6148C142.227 35.9482 142.227 36.2898 142.227 36.6398V46.0398C142.227 46.7232 142.243 47.3815 142.277 48.0148C142.327 48.6315 142.427 49.1982 142.577 49.7148C142.743 50.2982 142.952 50.7815 143.202 51.1648C143.452 51.5482 143.66 51.8148 143.827 51.9648H136.202C136.085 51.8482 135.902 51.6065 135.652 51.2398C135.418 50.8732 135.218 50.4482 135.052 49.9648C134.852 49.3815 134.702 48.7982 134.602 48.2148C134.518 47.6148 134.477 46.9148 134.477 46.1148L136.077 47.2148C135.61 48.3148 134.852 49.2648 133.802 50.0648C132.768 50.8482 131.535 51.4565 130.102 51.8898C128.685 52.3065 127.152 52.5148 125.502 52.5148ZM127.577 46.7148C128.793 46.7148 129.927 46.4982 130.977 46.0648C132.043 45.6148 132.91 44.9148 133.577 43.9648C134.243 43.0148 134.577 41.7732 134.577 40.2398V37.5648L136.502 39.4398C135.402 39.8398 134.127 40.1732 132.677 40.4398C131.243 40.6898 129.81 40.8898 128.377 41.0398C126.677 41.2065 125.402 41.4982 124.552 41.9148C123.718 42.3148 123.302 42.9982 123.302 43.9648C123.302 44.8815 123.66 45.5732 124.377 46.0398C125.093 46.4898 126.16 46.7148 127.577 46.7148ZM147.598 51.9648V25.4148H155.273V51.9648H147.598ZM151.423 21.0898C150.223 21.0898 149.173 20.7732 148.273 20.1398C147.39 19.5065 146.948 18.6148 146.948 17.4648C146.948 16.2982 147.39 15.3982 148.273 14.7648C149.173 14.1315 150.223 13.8148 151.423 13.8148C152.64 13.8148 153.69 14.1315 154.573 14.7648C155.473 15.3982 155.923 16.2982 155.923 17.4648C155.923 18.6315 155.473 19.5315 154.573 20.1648C153.69 20.7815 152.64 21.0898 151.423 21.0898ZM169.009 12.8898V51.9648H161.359V12.8898H169.009ZM177.393 63.4398C176.56 63.4398 175.81 63.4065 175.143 63.3398C174.493 63.2898 174.085 63.2315 173.918 63.1648V57.2898C174.135 57.3898 174.51 57.4648 175.043 57.5148C175.593 57.5815 176.176 57.6148 176.793 57.6148C177.61 57.6148 178.343 57.4482 178.993 57.1148C179.66 56.7982 180.226 56.3398 180.693 55.7398C181.176 55.1565 181.551 54.4648 181.818 53.6648L182.268 52.3148L173.118 25.4148H181.193L186.968 47.1898H186.068L191.618 25.4148H199.593L190.468 53.2898C189.785 55.3898 188.943 57.1982 187.943 58.7148C186.943 60.2315 185.61 61.3982 183.943 62.2148C182.276 63.0315 180.093 63.4398 177.393 63.4398ZM242.094 15.0898H255.219V51.9648H247.869V19.6648L248.019 19.7648L240.819 51.9648H230.669L223.344 19.6898L223.494 19.6148V51.9648H216.119V15.0898H229.244L235.969 48.2898H235.319L242.094 15.0898ZM271.044 52.4648C269.16 52.4648 267.61 52.1648 266.394 51.5648C265.177 50.9482 264.219 50.1232 263.519 49.0898C262.819 48.0565 262.327 46.9065 262.044 45.6398C261.76 44.3732 261.619 43.0898 261.619 41.7898C261.619 41.1898 261.619 40.5565 261.619 39.8898C261.619 39.2232 261.619 38.5398 261.619 37.8398V25.4148H269.369V36.6148C269.369 37.1815 269.369 37.7315 269.369 38.2648C269.369 38.7982 269.369 39.2898 269.369 39.7398C269.369 40.8565 269.494 41.8815 269.744 42.8148C269.994 43.7482 270.452 44.4982 271.119 45.0648C271.802 45.6315 272.769 45.9148 274.019 45.9148C275.235 45.9148 276.269 45.5732 277.119 44.8898C277.969 44.1898 278.619 43.2982 279.069 42.2148C279.519 41.1315 279.744 40.0148 279.744 38.8648L281.919 40.6398C281.919 42.3065 281.66 43.8565 281.144 45.2898C280.644 46.7232 279.927 47.9815 278.994 49.0648C278.06 50.1315 276.919 50.9648 275.569 51.5648C274.235 52.1648 272.727 52.4648 271.044 52.4648ZM279.744 51.9648V25.4148H287.494V51.9648H279.744ZM304.358 52.5648C302.775 52.5648 301.25 52.3815 299.783 52.0148C298.317 51.6482 297 51.1065 295.833 50.3898C294.683 49.6732 293.767 48.7815 293.083 47.7148C292.417 46.6315 292.083 45.3732 292.083 43.9398C292.083 43.8732 292.083 43.7982 292.083 43.7148C292.083 43.6148 292.083 43.5398 292.083 43.4898H299.783C299.783 43.5398 299.783 43.5982 299.783 43.6648C299.783 43.7148 299.783 43.7732 299.783 43.8398C299.783 44.8065 300.208 45.5148 301.058 45.9648C301.925 46.4148 303.092 46.6398 304.558 46.6398C305.325 46.6398 306.058 46.5648 306.758 46.4148C307.475 46.2482 308.058 45.9898 308.508 45.6398C308.975 45.2732 309.208 44.8148 309.208 44.2648C309.208 43.3815 308.717 42.7565 307.733 42.3898C306.767 42.0232 305.208 41.6565 303.058 41.2898C301.842 41.0898 300.608 40.8065 299.358 40.4398C298.108 40.0732 296.958 39.5898 295.908 38.9898C294.858 38.3732 294.017 37.5982 293.383 36.6648C292.75 35.7148 292.433 34.5648 292.433 33.2148C292.433 31.4148 292.975 29.8982 294.058 28.6648C295.158 27.4315 296.617 26.4982 298.433 25.8648C300.25 25.2315 302.25 24.9148 304.433 24.9148C306.517 24.9148 308.458 25.2648 310.258 25.9648C312.058 26.6482 313.517 27.6398 314.633 28.9398C315.75 30.2232 316.308 31.7732 316.308 33.5898C316.308 33.6232 316.308 33.6732 316.308 33.7398C316.308 33.8065 316.308 33.8732 316.308 33.9398H308.683C308.683 33.8732 308.683 33.8148 308.683 33.7648C308.683 33.7148 308.683 33.6732 308.683 33.6398C308.683 32.9732 308.467 32.4315 308.033 32.0148C307.617 31.5982 307.083 31.2898 306.433 31.0898C305.783 30.8732 305.108 30.7648 304.408 30.7648C303.775 30.7648 303.117 30.8398 302.433 30.9898C301.767 31.1232 301.2 31.3565 300.733 31.6898C300.267 32.0065 300.033 32.4565 300.033 33.0398C300.033 33.6065 300.283 34.0732 300.783 34.4398C301.283 34.7898 301.983 35.0815 302.883 35.3148C303.783 35.5315 304.825 35.7398 306.008 35.9398C307.125 36.1232 308.3 36.3815 309.533 36.7148C310.783 37.0315 311.95 37.4898 313.033 38.0898C314.133 38.6732 315.017 39.4482 315.683 40.4148C316.367 41.3648 316.708 42.5732 316.708 44.0398C316.708 45.5565 316.358 46.8565 315.658 47.9398C314.958 49.0232 314.008 49.9065 312.808 50.5898C311.625 51.2565 310.3 51.7482 308.833 52.0648C307.383 52.3982 305.892 52.5648 304.358 52.5648ZM324.506 41.0148V35.8898H342.106L341.356 37.1898C341.356 37.0565 341.356 36.9315 341.356 36.8148C341.356 36.6815 341.356 36.5565 341.356 36.4398C341.356 35.4898 341.131 34.5815 340.681 33.7148C340.231 32.8315 339.531 32.1148 338.581 31.5648C337.648 30.9982 336.448 30.7148 334.981 30.7148C333.514 30.7148 332.248 31.0315 331.181 31.6648C330.131 32.2815 329.323 33.1732 328.756 34.3398C328.206 35.5065 327.931 36.9148 327.931 38.5648C327.931 40.2648 328.198 41.7232 328.731 42.9398C329.281 44.1398 330.089 45.0648 331.156 45.7148C332.239 46.3648 333.581 46.6898 335.181 46.6898C336.214 46.6898 337.106 46.5982 337.856 46.4148C338.606 46.2148 339.214 45.9648 339.681 45.6648C340.164 45.3648 340.531 45.0315 340.781 44.6648C341.031 44.2982 341.181 43.9398 341.231 43.5898H348.881C348.781 44.7065 348.398 45.8065 347.731 46.8898C347.064 47.9565 346.139 48.9232 344.956 49.7898C343.773 50.6398 342.331 51.3148 340.631 51.8148C338.948 52.3148 337.023 52.5648 334.856 52.5648C331.923 52.5648 329.364 51.9815 327.181 50.8148C324.998 49.6315 323.306 48.0065 322.106 45.9398C320.906 43.8565 320.306 41.4565 320.306 38.7398C320.306 35.9898 320.914 33.5815 322.131 31.5148C323.364 29.4315 325.073 27.8148 327.256 26.6648C329.456 25.4982 331.998 24.9148 334.881 24.9148C337.831 24.9148 340.381 25.5065 342.531 26.6898C344.681 27.8565 346.339 29.4982 347.506 31.6148C348.673 33.7148 349.256 36.1648 349.256 38.9648C349.256 39.3815 349.248 39.7815 349.231 40.1648C349.214 40.5482 349.189 40.8315 349.156 41.0148H324.506Z" fill="#101828"/>
</svg>
